<svg xmlns="http://www.w3.org/2000/svg" xmlns:xlink="http://www.w3.org/1999/xlink" version="1.1" id="Layer_1" x="0px" y="0px" width="100%" viewBox="0 0 624 624" enable-background="new 0 0 624 624" xml:space="preserve">
<path fill="#ffffff" opacity="1.000000" stroke="none" d=" M205.999969,536.268555   C194.589890,536.268860 183.679825,536.268860 172.781174,536.268860   C172.405869,532.771729 174.503540,531.583801 175.896744,530.093140   C195.539337,509.075958 218.694641,493.108795 245.393127,482.422607   C249.675385,480.708588 251.278168,478.443298 251.026428,473.890106   C250.668213,467.411255 250.830215,460.893768 251.009201,454.399353   C251.098465,451.159698 249.851059,449.178497 247.070679,447.576050   C222.577591,433.459961 204.703018,413.433075 193.741196,387.330383   C192.424286,384.194550 190.075119,382.872925 186.892395,382.289734   C168.737503,378.963287 157.709778,367.763855 152.825928,350.416656   C147.417557,331.206390 159.691879,309.211975 178.893753,302.904114   C181.013885,302.207611 183.856400,302.334381 184.307114,299.323730   C184.750214,296.363983 182.505798,294.984619 180.455994,293.449860   C170.668015,286.121185 167.677765,275.985382 168.807938,264.303314   C169.150925,260.758026 168.313660,257.948090 165.924393,255.178970   C149.327316,235.943176 153.764236,212.050537 176.093872,199.695114   C177.079865,199.149536 178.042587,198.561890 179.096924,197.946701   C177.846710,194.800201 175.249649,193.100693 173.344147,190.866837   C160.844162,176.212936 160.127441,155.693527 171.656509,141.172134   C173.126724,139.320328 174.781128,137.697556 176.816177,136.510300   C182.228287,133.352814 186.653870,135.346497 187.968567,141.494431   C190.404938,152.887573 195.956787,156.810669 207.752869,155.725571   C211.940018,155.340408 213.913483,153.728668 213.760254,149.135361   C213.350189,136.841614 217.642502,126.293884 226.715210,117.878738   C228.526428,116.198807 230.650055,114.773422 232.821335,113.579208   C239.680038,109.806839 244.586792,111.708557 247.340942,119.026810   C250.398102,127.150215 257.472992,131.892654 265.803589,131.690430   C268.666077,131.620956 270.253235,130.458481 270.554443,127.717285   C272.477753,110.211281 290.663452,92.777596 314.592285,91.793228   C336.336670,90.898712 354.879089,104.315247 361.109741,125.377060   C362.035828,128.507507 363.625793,128.978119 366.150482,128.543884   C371.557129,127.613953 376.095398,124.982475 380.213287,121.399269   C386.598541,115.843109 390.806763,115.435211 394.457977,119.740028   C398.279602,124.245766 397.279236,130.107880 391.786377,135.158401   C390.584595,136.263412 389.283569,137.260468 387.812836,138.486832   C391.204834,141.817429 394.455688,144.922256 396.890808,148.695679   C398.335846,150.934769 400.095123,149.788330 401.764587,149.350815   C425.137970,143.225403 444.751923,155.966553 448.736237,179.722549   C449.505981,184.312134 448.969604,188.736526 447.883118,193.069305   C447.092438,196.222473 447.626953,197.817841 450.674194,199.344406   C474.057587,211.058914 478.922424,236.460434 461.508881,255.798599   C459.408569,258.131073 458.797180,260.260895 459.157135,263.383362   C460.632812,276.182495 457.326660,287.085144 446.085510,294.757690   C442.126099,297.460114 443.045685,300.621674 448.066956,302.476410   C462.587067,307.839905 472.015442,317.790863 475.401001,333.046051   C479.943878,353.516083 467.076874,375.182404 445.865753,380.865784   C438.169556,382.927948 434.539886,386.710541 431.457550,393.648956   C421.109863,416.941895 403.827942,434.208618 381.999176,446.988403   C378.507751,449.032440 377.049377,451.299835 377.226227,455.321472   C377.518799,461.974731 377.553864,468.661041 377.235687,475.311340   C377.043274,479.333435 379.038818,480.713196 382.338409,482.029968   C408.404510,492.432190 431.200562,507.723114 450.377777,528.273438   C452.270416,530.301636 454.521332,532.153381 455.940491,536.268250   C372.439667,536.268250 289.469818,536.268250 205.999969,536.268555  M329.603821,340.695221   C327.759369,336.929932 326.892853,332.853149 325.693176,328.871246   C324.370514,324.481323 327.063232,318.123962 323.057007,315.922852   C319.308319,313.863251 313.647430,315.380066 308.838959,315.121216   C305.357361,314.933746 304.176453,316.373138 304.192993,319.803223   C304.331818,348.577728 278.897186,371.224030 249.276917,367.413849   C226.545685,364.489838 206.754227,341.605499 208.237244,318.910553   C208.410614,316.257538 207.635635,315.085175 205.102707,315.102570   C202.977844,315.117126 200.329636,314.746460 200.346573,317.999023   C200.412415,330.651215 198.821365,343.471680 200.911835,355.923340   C206.130112,387.005798 222.132111,411.409943 248.364929,429.230286   C289.252106,457.005585 339.010071,457.778809 379.221344,430.226501   C418.560822,403.271484 432.119537,364.748596 427.870422,318.613403   C427.671631,316.454865 426.928467,315.167603 424.585968,315.133453   C421.898621,315.094299 421.205383,316.606659 421.245667,318.977295   C421.285217,321.303680 421.375061,323.677490 420.993713,325.955261   C417.448181,347.132233 401.339233,364.164612 382.080353,367.232605   C360.095947,370.734802 340.620209,361.090942 329.603821,340.695221  M267.816254,272.379730   C281.073822,275.850250 291.129333,283.559937 297.783081,295.500153   C299.562042,298.692566 301.717316,300.000854 305.341675,299.868652   C311.662109,299.638031 317.998260,299.703491 324.324432,299.823639   C327.279694,299.879761 329.210114,298.977295 330.782745,296.259552   C349.598785,263.742523 392.540619,262.287262 413.381897,293.388763   C415.343231,296.315643 417.265289,299.365997 421.223694,299.739380   C423.450012,299.949371 426.310211,300.900574 427.436523,298.177887   C428.435944,295.761902 428.540314,292.932892 426.396210,290.690369   C426.051056,290.329346 425.706055,289.967865 425.371002,289.597595   C418.626709,282.143768 416.376617,273.358978 418.301605,263.648438   C419.301483,258.604584 418.362152,254.962891 414.476624,251.238174   C403.416840,240.636063 396.877350,227.664536 395.396027,212.186234   C395.080048,208.884644 395.895386,205.220657 393.874329,202.113358   C391.589508,202.482925 390.751007,204.272293 389.545258,205.572021   C386.025726,209.365768 382.465973,213.285141 377.932861,215.713425   C361.145111,224.706238 343.107361,228.978867 324.079529,227.958176   C291.536957,226.212524 262.860626,214.722321 238.458527,192.911896   C237.181778,191.770752 236.082031,190.053452 233.951675,190.401718   C233.747482,190.780243 233.470551,191.058868 233.462067,191.345444   C233.373352,194.339661 233.173477,197.341400 233.294830,200.329269   C234.155945,221.530930 227.090485,239.495148 211.509995,254.003723   C209.951263,255.455200 208.914993,257.036346 209.344009,259.257507   C211.672333,271.311554 210.364868,282.356964 201.265427,291.674530   C198.738098,294.262482 199.863281,298.864960 202.498215,299.637207   C207.512390,301.106750 211.596085,299.580109 214.473557,295.160522   C226.979187,275.952484 244.673798,268.188354 267.816254,272.379730  M290.499664,523.950989   C307.721832,530.138794 324.832123,529.424194 341.672333,522.675476   C354.682739,517.461609 361.644989,506.687073 361.647980,492.741547   C361.649933,483.585419 361.745880,474.428894 361.675781,465.273468   C361.657349,462.861694 362.348724,460.315674 360.518494,457.247803   C329.623779,469.280731 298.376709,468.544769 267.694153,457.346130   C265.941742,459.556213 266.358093,461.283051 266.356140,462.896210   C266.345367,471.885651 266.334198,480.876007 266.447998,489.864471   C266.673920,507.703094 273.065063,516.918701 290.499664,523.950989  M362.641724,288.020630   C347.763702,293.985992 339.907196,305.133606 340.237335,320.569733   C340.544403,334.925354 348.236633,344.541016 360.908539,350.317017   C372.202728,355.465088 386.597473,352.657654 395.644806,343.789429   C405.648956,333.983246 408.388947,322.085480 404.143860,308.973938   C398.680481,292.099792 380.491486,282.382172 362.641724,288.020630  M283.787689,301.754272   C275.367065,289.109314 262.878632,284.024994 248.407944,287.350403   C231.341461,291.272308 219.929657,309.127045 223.835541,325.795898   C228.186630,344.364746 245.578705,355.948456 263.098267,351.946259   C285.397278,346.852234 295.370422,323.387024 283.787689,301.754272  M178.862778,361.659271   C180.797516,362.833832 182.547134,364.528595 185.358490,363.937225   C185.451202,363.116241 185.721146,362.290283 185.604675,361.522980   C183.772842,349.454651 185.060211,337.307037 184.614883,325.205994   C184.551300,323.478149 185.463104,321.239197 183.395203,320.229553   C181.261276,319.187714 179.632156,320.975403 178.058929,322.085236   C164.521805,331.634857 164.645447,350.242950 178.862778,361.659271  M443.333588,355.488770   C443.749359,358.368958 442.187073,361.241547 443.012268,364.188751   C453.125641,361.931183 460.001617,352.029480 459.745911,340.442169   C459.520935,330.247040 453.226593,321.896851 444.078491,320.301544   C442.856689,331.741028 444.957428,343.229675 443.333588,355.488770  z"/>
<path fill="#ffffff" opacity="1.000000" stroke="none" d=" M347.325134,384.618896   C348.105896,388.679169 346.335236,391.403534 343.982941,393.925751   C328.657654,410.357880 300.922272,410.676056 285.296204,394.564362   C284.262115,393.498077 283.240326,392.333435 282.552246,391.034698   C280.696289,387.531677 280.169067,383.927368 283.636749,381.099548   C286.983276,378.370514 290.284210,379.566223 293.031189,382.212952   C300.354370,389.268707 308.959534,392.121765 319.044983,390.808441   C325.981567,389.905151 331.312012,386.110687 336.526459,381.849243   C341.093201,378.117126 344.272949,378.952026 347.325134,384.618896  z"/>
<path fill="#ffffff" opacity="1.000000" stroke="none" d=" M373.248413,328.567108   C366.312073,331.328522 360.589508,329.414307 357.752197,323.700806   C354.976318,318.110992 356.934723,311.765228 362.403442,308.629486   C367.594055,305.653259 373.846497,307.220764 377.240479,312.349182   C380.914703,317.901093 379.642059,323.464417 373.248413,328.567108  z"/>
<path fill="#ffffff" opacity="1.000000" stroke="none" d=" M250.804688,322.817322   C248.896332,315.533783 251.728195,309.670593 257.810547,307.667297   C263.407990,305.823730 269.302277,308.535431 271.735840,314.073700   C274.141724,319.549011 271.759735,325.926697 266.235046,328.801849   C260.396912,331.840088 254.995728,329.857758 250.804688,322.817322  z"/>
</svg>